<?xml version="1.0" encoding="UTF-8"?>
<svg width="74px" height="69px" viewBox="0 0 74 69" version="1.1" xmlns="http://www.w3.org/2000/svg" xmlns:xlink="http://www.w3.org/1999/xlink">
    <!-- Generator: Sketch 51.1 (57501) - http://www.bohemiancoding.com/sketch -->
    <title>linkedin-6017</title>
    <desc>Created with Sketch.</desc>
    <defs></defs>
    <g id="Page-1" stroke="none" stroke-width="1" fill="none" fill-rule="evenodd" stroke-linecap="round" stroke-linejoin="round">
        <g id="Contacto" transform="translate(-899.000000, -571.000000)" stroke="#626262" stroke-width="2">
            <g id="Information" transform="translate(900.000000, 307.000000)">
                <g id="linkedin-6017" transform="translate(0.000000, 265.000000)">
                    <polygon id="Shape" points="1.2936 21.9972 15.9192 21.9972 15.9192 66.21 1.2936 66.21"></polygon>
                    <path d="M53.6628,20.5344 C47.25,20.5344 43.4256,22.8972 39.3756,28.0716 L39.3756,21.9972 L24.75,21.9972 L24.75,66.21 L39.4872,66.21 L39.4872,42.2472 C39.4872,37.1844 42.0744,32.2344 47.9244,32.2344 C53.7744,32.2344 57.2616,37.1844 57.2616,42.1344 L57.2616,66.21 L72,66.21 L72,41.1228 C72,23.6844 60.1872,20.5344 53.6628,20.5344 Z" id="Shape"></path>
                    <path d="M8.6628,0.51 C3.8256,0.51 0,3.9972 0,8.2728 C0,12.5484 3.8256,16.0356 8.6628,16.0356 C13.5,16.0356 17.3256,12.5484 17.3256,8.2728 C17.3256,3.9972 13.5,0.51 8.6628,0.51 Z" id="Shape"></path>
                </g>
            </g>
        </g>
    </g>
</svg>