<?xml version="1.0" encoding="UTF-8"?>
<svg width="74px" height="61px" viewBox="0 0 74 61" version="1.1" xmlns="http://www.w3.org/2000/svg" xmlns:xlink="http://www.w3.org/1999/xlink">
    <!-- Generator: Sketch 51.1 (57501) - http://www.bohemiancoding.com/sketch -->
    <title>Logo Copy</title>
    <desc>Created with Sketch.</desc>
    <defs></defs>
    <g id="Page-1" stroke="none" stroke-width="1" fill="none" fill-rule="evenodd" stroke-linecap="round" stroke-linejoin="round">
        <g id="Contacto" transform="translate(-899.000000, -712.000000)" stroke="#000000" stroke-width="2">
            <g id="Information" transform="translate(900.000000, 307.000000)">
                <g id="Logo-Copy" transform="translate(0.000000, 405.000000)">
                    <path d="M50.7763158,53.0526316 L50.7763158,16.4210526" id="Path"></path>
                    <path d="M2.52631579,1.26315789 L20.2105263,1.26315789" id="Line"></path>
                    <path d="M2.52631579,1.26315789 L7.46233836,10.4053072" id="Line"></path>
                    <path d="M20.2105263,1.26315789 L37.8947368,36.6315789" id="Line"></path>
                    <path d="M72,1.26315789 L65.6842105,7.57894737" id="Line"></path>
                    <path d="M37.8947368,36.6315789 L53.0526316,1.26315789" id="Line"></path>
                    <path d="M50.5263158,16.4210526 L31.5789474,59.3684211" id="Line"></path>
                    <path d="M72,1.26315789 L53.0526316,1.26315789" id="Line"></path>
                    <path d="M10.5179518,14.5056437 L31.5789474,59.3684211 C17.6877007,29.9126834 10.7420774,15.1347122 10.7420774,15.0345074 L10.5179518,14.5056437 Z" id="Line"></path>
                    <path d="M0,46.5196644 L7.49981011,59.3684211" id="Line" transform="translate(3.749905, 52.944043) scale(-1, 1) translate(-3.749905, -52.944043) "></path>
                    <path d="M18.9473684,59.3684211 L0,59.3684211" id="Line"></path>
                    <path d="M10.5186848,46.5464136 L18.9473684,59.3684211" id="Line"></path>
                    <path d="M50.6526316,53.0526316 L50.6526316,16.4210526" id="Path"></path>
                    <path d="M44.2105263,53.1035862 L50.6994332,59.3684211" id="Line" transform="translate(47.454980, 56.236004) scale(-1, 1) translate(-47.454980, -56.236004) "></path>
                    <path d="M65.9320727,53.2539187 L72,59.3684211" id="Line"></path>
                    <path d="M44.2105263,59.3684211 L72,59.3684211" id="Line"></path>
                    <path d="M65.7842105,53.0526316 L65.6842105,7.57894737" id="Path"></path>
                    <path d="M7.5,10.5 L7.5,46.3650077" id="Line-2"></path>
                    <path d="M10.5,14.5 L10.5,46.5" id="Line-2"></path>
                </g>
            </g>
        </g>
    </g>
</svg>