<?xml version="1.0" encoding="UTF-8"?>
<svg width="74px" height="75px" viewBox="0 0 74 75" version="1.1" xmlns="http://www.w3.org/2000/svg" xmlns:xlink="http://www.w3.org/1999/xlink">
    <!-- Generator: Sketch 51.1 (57501) - http://www.bohemiancoding.com/sketch -->
    <title>Shape</title>
    <desc>Created with Sketch.</desc>
    <defs></defs>
    <g id="Page-1" stroke="none" stroke-width="1" fill="none" fill-rule="evenodd" stroke-linecap="round" stroke-linejoin="round">
        <g id="Contacto" transform="translate(-899.000000, -306.000000)" stroke="#626262" stroke-width="2">
            <g id="Information" transform="translate(900.000000, 307.000000)">
                <g id="calls-4648">
                    <path d="M68.3594814,54.0025962 L55.8649541,45.8330975 C53.2626273,44.184212 49.8238355,44.8719704 48.0558745,47.3949135 C45.172522,50.8789644 41.6884711,56.6456693 28.5932453,43.5504435 C15.4980195,30.4552177 21.1445848,26.8510271 24.6286357,23.9676747 C27.1515788,22.1997136 27.8393371,18.7609218 26.1904516,16.158595 L18.0209529,3.66406768 C16.9396958,2.10225176 15.4980195,-0.420681648 12.1341083,0.0598770972 C8.77019709,0.540435842 0,5.46616298 0,16.2787347 C0,27.0913065 8.52991772,40.306672 20.1834673,51.9602215 C31.8370168,63.6137711 45.0523823,72.0235491 55.7448144,72.0235491 C66.4372465,72.0235491 71.603253,62.4123742 71.963672,60.0095805 C72.3240911,57.6067868 69.9212974,55.0838534 68.3594814,54.0025962 Z" id="Shape"></path>
                </g>
            </g>
        </g>
    </g>
</svg>